<?xml version="1.0" standalone="no"?>
<!DOCTYPE svg PUBLIC "-//W3C//DTD SVG 20010904//EN"
 "http://www.w3.org/TR/2001/REC-SVG-20010904/DTD/svg10.dtd">
<svg version="1.0" xmlns="http://www.w3.org/2000/svg"
 width="2042.000000pt" height="2048.000000pt" viewBox="0 0 2042.000000 2048.000000"
 preserveAspectRatio="xMidYMid meet">

<g transform="translate(0.000000,2048.000000) scale(0.100000,-0.100000)"
fill="#000000" stroke="none">
<path d="M9735 17529 c-326 -21 -658 -64 -965 -125 -2101 -419 -3894 -1758
-4913 -3669 -156 -291 -378 -800 -381 -870 -1 -25 -9 -34 -51 -57 -27 -14 -56
-37 -62 -50 -8 -14 -13 -66 -13 -135 0 -109 -1 -115 -37 -190 -25 -52 -38 -95
-39 -128 -2 -27 -19 -115 -38 -195 -79 -325 -137 -666 -170 -1000 -30 -295
-36 -535 -29 -1127 l6 -583 28 0 c33 0 27 18 64 -205 114 -686 344 -1379 671
-2020 102 -201 202 -375 360 -627 l124 -198 -30 -107 c-16 -60 -31 -119 -34
-133 -10 -52 -15 -70 -21 -80 -8 -12 -635 -2303 -632 -2307 3 -2 209 51 1202
312 182 47 494 129 695 182 201 52 463 121 583 152 l217 57 143 -84 c633 -375
1152 -604 1771 -783 864 -250 1800 -334 2696 -243 1503 152 2910 776 4041
1790 151 135 451 438 581 585 107 121 298 354 298 364 0 4 6 12 13 19 6 8 19
24 27 36 8 12 23 32 34 43 83 96 334 473 460 692 47 82 86 153 86 157 0 5 -7
8 -15 8 -8 0 -15 7 -15 15 0 8 9 15 20 15 19 0 20 7 20 90 l0 90 53 0 54 0 66
137 c387 805 613 1682 677 2618 12 192 13 685 0 880 -64 962 -302 1859 -721
2706 -715 1448 -1920 2631 -3369 3308 -831 389 -1682 603 -2620 661 -191 11
-646 11 -835 -1z m-2240 -3158 c205 -11 256 -26 342 -104 126 -115 167 -204
643 -1377 81 -201 167 -408 190 -460 91 -207 90 -266 -6 -461 -35 -72 -79
-154 -98 -183 -42 -66 -303 -380 -419 -504 -201 -215 -192 -270 123 -741 588
-878 1262 -1496 2140 -1959 140 -74 632 -296 703 -317 129 -38 223 -9 329 103
139 148 484 570 655 802 65 88 108 135 144 160 50 34 55 35 143 35 106 -1 165
-19 391 -120 289 -130 1476 -707 1586 -771 67 -39 117 -86 131 -123 30 -79 26
-326 -8 -526 -33 -191 -120 -488 -165 -564 -13 -20 -21 -50 -20 -68 2 -32 1
-33 -39 -33 l-40 0 0 -85 0 -85 -51 0 c-51 0 -54 -2 -128 -73 -150 -143 -349
-279 -581 -397 -308 -156 -443 -191 -860 -221 -448 -32 -1079 117 -2040 481
-514 195 -885 382 -1303 656 -685 450 -1380 1098 -1984 1850 -64 80 -113 151
-113 162 0 18 -3 20 -23 13 -14 -5 -30 -6 -38 0 -10 6 -16 3 -21 -9 -5 -12 -7
-8 -7 13 -2 53 -40 135 -119 254 -43 64 -86 135 -96 159 -17 37 -23 42 -51 42
-38 0 -55 15 -55 50 0 16 -35 74 -96 160 -462 646 -735 1254 -826 1833 -15 96
-21 192 -23 354 -2 122 -6 226 -10 232 -8 14 12 51 29 51 10 0 15 31 19 128
12 293 168 694 390 1002 123 172 339 410 439 485 199 150 353 179 823 156z
m-4015 -2076 c0 -8 -7 -15 -15 -15 -16 0 -20 12 -8 23 11 12 23 8 23 -8z"/>
<path d="M6763 10025 c-3 -9 -3 -18 0 -21 9 -9 27 6 27 22 0 19 -19 18 -27 -1z"/>
</g>
</svg>
